<?xml version="1.0" encoding="UTF-8"?>
<svg id="Capa_1" xmlns="http://www.w3.org/2000/svg" width="509.28" height="151.89" version="1.1" viewBox="0 0 509.28 151.89">
  <!-- Generator: Adobe Illustrator 29.3.1, SVG Export Plug-In . SVG Version: 2.1.0 Build 151)  -->
  <defs>
    <style>
      .st0 {
        fill: #1d1d1b;
      }

      .st1 {
        fill: #fff;
      }

      .st2 {
        fill: #e30613;
      }
    </style>
  </defs>
  <polygon class="st1" points="308.28 146.74 340.3 146.74 340.3 38.98 382.44 38.98 382.44 6.97 266.13 6.97 266.13 38.98 308.28 38.98 308.28 146.74 308.28 146.74"/>
  <path class="st2" d="M451.45,148.86c29,0,54.57-13.69,54.57-43.29,0-18.52-9.87-29.2-24.97-33.83v-.4c12.28-4.83,20.94-13.49,20.94-27.58,0-24.36-20.74-38.86-51.14-38.86-34.23,0-53.36,19.13-53.96,46.51h31.61c.81-11.88,7.25-21.14,21.95-21.14,11.48,0,18.12,6.24,18.12,15.71,0,10.47-8.46,16.11-21.34,16.11h-7.45v23.56h8.26c15.1,0,23.56,6.04,23.56,18.12s-7.65,19.13-21.55,19.13c-17.32,0-24.57-10.27-25.37-24.97h-32.02c0,15.91,5.23,28.79,15.3,37.65,9.67,8.66,23.96,13.29,43.49,13.29h0Z"/>
  <polygon class="st1" points="141.06 6.97 141.06 38.59 248.19 38.59 248.19 6.97 141.06 6.97 141.06 6.97"/>
  <polygon class="st1" points="141.06 114.72 141.06 146.34 248.19 146.34 248.19 114.72 141.06 114.72 141.06 114.72"/>
  <polygon class="st1" points="141.06 60.64 141.06 92.26 248.19 92.26 248.19 60.64 141.06 60.64 141.06 60.64"/>
  <polygon class="st1" points="141.06 61.06 141.06 92.68 248.19 92.68 248.19 61.06 141.06 61.06 141.06 61.06"/>
  <path class="st0" d="M83.76,94.94"/>
  <polygon class="st2" points="123.04 7.06 90.41 7.06 90.41 60.63 123.04 60.63 123.04 7.06 123.04 7.06"/>
  <path class="st1" d="M122.03,139.11h0L43.98,6.56H5v139.78h32.45v-65.1c0-4.89-.39-22.87-.39-22.87h.39s7.62,15.05,9.97,18.77l41.05,69.2h33.55v-7.22h0Z"/>
</svg>